<svg width="1920" height="1080" viewBox="0 0 1920 1080" xmlns="http://www.w3.org/2000/svg">
    <rect width="1920" height="1080" fill="#000000" />
    <path
        d="M1920,1080C1633.5,1139,288.5,1133.5,0,1080C-288.5,1026.5,126.16666666666666,770.6666666666666,189,759C251.83333333333334,747.3333333333334,313.3333333333333,993.6666666666666,377,1010C440.6666666666667,1026.3333333333333,507,898.5,571,857C635,815.5,697.8333333333334,764.8333333333334,761,761C824.1666666666666,757.1666666666666,886,817,950,834C1014,851,1079.8333333333333,877.6666666666666,1145,863C1210.1666666666667,848.3333333333334,1277.1666666666667,773.3333333333334,1341,746C1404.8333333333333,718.6666666666666,1465,702.3333333333334,1528,699C1591,695.6666666666666,1653.6666666666667,662.5,1719,726C1784.3333333333333,789.5,2206.5,1021,1920,1080C1633.5,1139,288.5,1133.5,0,1080"
        fill="#abea6c" />
</svg>